<svg id="Layer_1" data-name="Layer 1" xmlns="http://www.w3.org/2000/svg" xmlns:xlink="http://www.w3.org/1999/xlink" viewBox="0 0 36 36"><defs><clipPath id="clip-path"><rect width="36" height="36" style="fill:none"/></clipPath></defs><g style="clip-path:url(#clip-path)"><g id="Mask_Group_5" data-name="Mask Group 5"><g id="Group_3" data-name="Group 3"><path id="Path_16" data-name="Path 16" d="M28.47,17.66A10.74,10.74,0,0,0,19.32,7.48a2.05,2.05,0,0,0,.52-1.37A2.11,2.11,0,0,0,17.75,4h-.14a2.11,2.11,0,0,0-2,2v.09a2.05,2.05,0,0,0,.52,1.37A10.75,10.75,0,0,0,7,17.67H6.43a.42.42,0,0,0-.43.42H6a.42.42,0,0,0,.43.42H10a1,1,0,0,0-.1.72l0,.12.09.08A5.52,5.52,0,0,1,11,24.8l0,0a.83.83,0,0,0-1.13.09L7.88,27a.78.78,0,0,0,0,1.1h0A.69.69,0,0,0,8,28.2l4.75,3.63a.86.86,0,0,0,1.13-.09l2-2.12a.85.85,0,0,0,0-1.2l-.06-.06,0,0c.78-.72,2.66-2.45,4.52-4.25,4-3.92,4.74-5.09,4.83-5.59h4a.42.42,0,0,0,.42-.42h0a.42.42,0,0,0-.42-.42h-.61ZM13.23,31.16,8.49,27.52l2-2.12.25.19.15.13L15.23,29ZM16.5,6.09a1.25,1.25,0,1,1,1.22,1.28A1.26,1.26,0,0,1,16.5,6.09Zm7.64,12.44c-.63,1.22-4.93,5.5-9.12,9.3l-3.29-2.51A6.35,6.35,0,0,0,10.66,19a.52.52,0,0,1,.22-.22,1.16,1.16,0,0,1,1.23-.05,8.07,8.07,0,0,1,2.36,3.12l0,.09c.78,1,2.19.52,2.9.1l2.12-1.65a6.3,6.3,0,0,1,3.91-1.82h.36a1.37,1.37,0,0,1,.35,0Zm-10.86,0h7.37A8.31,8.31,0,0,0,19,19.7l-2,1.58c-.16.09-1.28.66-1.76.13a10.24,10.24,0,0,0-1.92-2.9Zm10.45-.85H7.86a9.89,9.89,0,0,1,19.77,0Z" style="fill:#030504"/><path id="Path_17" data-name="Path 17" d="M20.23,10.64h0a.41.41,0,0,0,.18.53,7.76,7.76,0,0,1,3.85,4.49.45.45,0,0,0,.54.29h0a.44.44,0,0,0,.31-.54c-.66-2.61-3.29-4.36-4.3-5a.42.42,0,0,0-.56.15A.08.08,0,0,0,20.23,10.64Z" style="fill:#030504"/></g></g></g></svg>