<svg id="Layer_1" data-name="Layer 1" xmlns="http://www.w3.org/2000/svg" xmlns:xlink="http://www.w3.org/1999/xlink" viewBox="0 0 36 36"><defs><clipPath id="clip-path"><rect width="36" height="36" style="fill:none"/></clipPath></defs><g style="clip-path:url(#clip-path)"><g id="Mask_Group_6" data-name="Mask Group 6"><path id="Path_16-2" data-name="Path 16-2" d="M27.82,20h0l-.11-.08,0,0V18.62a5.55,5.55,0,0,0-.17-1.46c0-.12-.07-.24-.1-.35A6.22,6.22,0,0,0,24,13V6.54a2,2,0,0,0-.28-1s0,0,0-.06a3.57,3.57,0,0,0-.3-.38,2.09,2.09,0,0,0-1-.54,22.55,22.55,0,0,0-9.81,0,2.06,2.06,0,0,0-.95.54,2.28,2.28,0,0,0-.3.38.08.08,0,0,0,0,0,2,2,0,0,0-.29,1V13a6.18,6.18,0,0,0-3.41,3.82c0,.09-.07.21-.1.34a6.1,6.1,0,0,0-.18,1.47v1.26l0,0A.77.77,0,0,0,7.14,21a.63.63,0,0,0,.22.21v2.16A6.17,6.17,0,0,0,11.05,29v.47a2.07,2.07,0,0,0,1.57,2,22.25,22.25,0,0,0,9.81,0,2,2,0,0,0,.95-.53A2.06,2.06,0,0,0,24,29.46V29a6.17,6.17,0,0,0,3.69-5.65V21.18a.77.77,0,0,0,.36-.65A.75.75,0,0,0,27.82,20Zm-9.75-9.7H17V9.62h1.1v.68Zm-.41-2V9h-.27V8.35Zm1,.72A.33.33,0,0,0,18.4,9h-.1V8A.32.32,0,0,0,18,7.71h-.92a.32.32,0,0,0-.32.32V9h-.09a.32.32,0,0,0-.32.32h0v.35h-.84a1,1,0,0,1-1-1v-1a1,1,0,0,1,1-1h4.07a1,1,0,0,1,1,1v1a1,1,0,0,1-1,1h-.84V9.29a.31.31,0,0,0-.09-.22Zm-1,1.88v.61h-.27V11Zm.47,1.26.31.7a4.34,4.34,0,0,1-1.83,0l.32-.7Zm3.72-4.34v4.64a27.62,27.62,0,0,0-3-.29l-.21-.47a.33.33,0,0,0-.29-.19h0V11h.09a.32.32,0,0,0,.32-.33h0v-.33h.84a1.62,1.62,0,0,0,1.61-1.61v-1a1.62,1.62,0,0,0-1.61-1.61H15.49a1.61,1.61,0,0,0-1.61,1.61v1a1.62,1.62,0,0,0,1.61,1.61h.84v.33a.32.32,0,0,0,.31.33h.1v.61h0a.34.34,0,0,0-.3.19l-.21.47a27.62,27.62,0,0,0-3,.29V7.87a3,3,0,0,0-1.12-2.29l0,0,0,0a1.37,1.37,0,0,1,.65-.37,21.75,21.75,0,0,1,9.5,0,1.42,1.42,0,0,1,.65.37l0,0A2.93,2.93,0,0,0,21.85,7.87ZM12.65,15a.33.33,0,0,0,.23.1h0a.32.32,0,0,0,.32-.32h0V13.18c.9-.14,1.8-.23,2.71-.28l0,.1v0h0a.15.15,0,0,0,0,.07h0v0s0,0,0,.06h0l0,.05,0,0h0l.05,0h0l.29.08a4.64,4.64,0,0,0,1.17.15h0a4.71,4.71,0,0,0,1.18-.15l.3-.08h0l.05,0,0,0h0l0-.05,0,0h0s0,0,0-.06,0,0,0-.06h0a.43.43,0,0,1,0,0,.14.14,0,0,0,0-.07l0-.1a24.66,24.66,0,0,1,2.71.29v1.6a.32.32,0,0,0,.33.32h0a.33.33,0,0,0,.32-.32V7.88a2.25,2.25,0,0,1,.8-1.73,1.67,1.67,0,0,1,0,.39v6.67s0,0,0,.06v0l0,0,0,.06,0,0,0,0,.07,0h0A5.57,5.57,0,0,1,26.77,17c0,.13.07.23.09.32A5.66,5.66,0,0,1,27,18.62V19.8h0a32.22,32.22,0,0,1-19,0H8l0-1.18H8a5.14,5.14,0,0,1,.16-1.3,1.82,1.82,0,0,1,.07-.25l0-.07a5.57,5.57,0,0,1,3.24-3.5l.07,0,0,0,0,0,0-.06h0v0a.09.09,0,0,1,0,0V6.54a1.74,1.74,0,0,1,.05-.39,2.32,2.32,0,0,1,.8,1.73v6.91a.33.33,0,0,0,.11.22ZM7.82,20.43a33.06,33.06,0,0,0,19.4,0h0a.14.14,0,0,1,.17.12.14.14,0,0,1-.09.12,32.24,32.24,0,0,1-19.58,0,.13.13,0,0,1-.08-.12.09.09,0,0,1,.05-.1.13.13,0,0,1,.13,0Zm5,10.41a1.4,1.4,0,0,1-.66-.37,1.42,1.42,0,0,1-.42-1v-.23a6.36,6.36,0,0,0,1.84.28h1.11l0,.16a1.44,1.44,0,0,0,1.42,1.19h2.84a1.44,1.44,0,0,0,1.42-1.19l0-.17h1.12a6.09,6.09,0,0,0,1.84-.28v.24a1.42,1.42,0,0,1-.42,1,1.49,1.49,0,0,1-.65.36,21.6,21.6,0,0,1-9.5,0Zm7-1.27a.8.8,0,0,1-.79.66H16.1a.8.8,0,0,1-.79-.66v-.05h4.45Zm7.3-6.1a5.5,5.5,0,0,1-3.46,5l-.05,0a5.52,5.52,0,0,1-2,.38h-8a5.47,5.47,0,0,1-2-.39h0A5.48,5.48,0,0,1,8,23.35V21.42a33.11,33.11,0,0,0,19,0v2Z" style="fill:#030504"/></g></g></svg>