<svg id="Layer_1" data-name="Layer 1" xmlns="http://www.w3.org/2000/svg" xmlns:xlink="http://www.w3.org/1999/xlink" viewBox="0 0 36 36"><defs><clipPath id="clip-path"><rect width="36" height="36" style="fill:none"/></clipPath></defs><g style="clip-path:url(#clip-path)"><g id="Mask_Group_2" data-name="Mask Group 2"><g id="ic_food_icon" data-name="ic food icon"><path id="Path_7" data-name="Path 7" d="M24.27,31.79a3.48,3.48,0,0,1-2.82-2A14.93,14.93,0,0,1,19.72,24a3.47,3.47,0,0,1,1.11-2.91,8.63,8.63,0,0,0,1.67-2V6.52A3,3,0,0,1,23,4.68a1.49,1.49,0,0,1,2.06-.43,1.63,1.63,0,0,1,.44.43A3.09,3.09,0,0,1,26,6.52V19.05a8.38,8.38,0,0,0,1.67,2A3.54,3.54,0,0,1,28.82,24a15.33,15.33,0,0,1-1.73,5.76,3.51,3.51,0,0,1-2.82,2Zm0-.65c.74,0,1.54-.52,2.26-1.72a14.37,14.37,0,0,0,1.64-5.5,2.78,2.78,0,0,0-.94-2.39,7.94,7.94,0,0,1-1.83-2.29.5.5,0,0,1,0-.12V6.52A2.41,2.41,0,0,0,25,5.07a.84.84,0,0,0-1.15-.3.79.79,0,0,0-.3.3,2.48,2.48,0,0,0-.39,1.45v12.6a.25.25,0,0,1,0,.12,7.94,7.94,0,0,1-1.82,2.29,2.78,2.78,0,0,0-.95,2.4A14.78,14.78,0,0,0,22,29.43c.72,1.19,1.52,1.71,2.27,1.71Z" style="fill-rule:evenodd"/><path id="Path_8" data-name="Path 8" d="M9.2,4.25a.34.34,0,0,0-.31.28L8,9.85a3.29,3.29,0,0,0,.64,2.44,5,5,0,0,0,1.79,1.5V29.94c0,2.71,4.23,2.82,4.23,0V13.78a5,5,0,0,0,1.79-1.5,3.27,3.27,0,0,0,.64-2.44l-.86-5.31A.33.33,0,0,0,16,4.24a.35.35,0,0,0-.34.35v0l.86,5.31a2.6,2.6,0,0,1-.52,2,4.48,4.48,0,0,1-1.73,1.38.34.34,0,0,0-.19.3V29.94c0,1.85-2.92,1.67-2.92,0V13.58a.33.33,0,0,0-.19-.3A4.45,4.45,0,0,1,9.21,11.9a2.61,2.61,0,0,1-.53-2l.86-5.31a.36.36,0,0,0-.29-.39H9.2Z" style="fill-rule:evenodd"/><path id="Path_9" data-name="Path 9" d="M10.82,4.22a.33.33,0,0,0-.33.33v6.67h0a.33.33,0,0,0,.31.35.32.32,0,0,0,.34-.31s0,0,0,0V4.55h0a.32.32,0,0,0-.32-.33Z" style="fill-rule:evenodd"/><path id="Path_10" data-name="Path 10" d="M14.34,4.22a.33.33,0,0,0-.33.33v6.67h0a.34.34,0,0,0,.31.35.33.33,0,0,0,.35-.31V4.55h0a.33.33,0,0,0-.33-.33Z" style="fill-rule:evenodd"/><path id="Path_11" data-name="Path 11" d="M12.58,4.22a.32.32,0,0,0-.32.33v6.67h0a.32.32,0,0,0,.32.33.33.33,0,0,0,.33-.33V4.55h0a.32.32,0,0,0-.32-.33Z" style="fill-rule:evenodd"/></g></g></g></svg>