<svg id="Layer_1" data-name="Layer 1" xmlns="http://www.w3.org/2000/svg" xmlns:xlink="http://www.w3.org/1999/xlink" viewBox="0 0 36 36"><defs><clipPath id="clip-path"><rect width="36" height="36" style="fill:none"/></clipPath></defs><g style="clip-path:url(#clip-path)"><g id="Mask_Group_3" data-name="Mask Group 3"><path id="ic_grocery_icon" data-name="ic grocery icon" d="M28.64,13.62a.56.56,0,0,0-.05-.08l0,0h0a.16.16,0,0,0-.08-.06l0,0h0l-.1,0h0l-.08,0-.07,0,0,0-1.8,1.72L27.52,12a2.69,2.69,0,0,0-.81-3c1.43-.94,2.15-1.9,2-2.68a1.08,1.08,0,0,0-1.05-.79A2.93,2.93,0,0,0,25.4,6.57a2.85,2.85,0,0,0-.93-2.28,1.09,1.09,0,0,0-1.31-.12c-.66.46-.76,1.66-.31,3.31a2.7,2.7,0,0,0-2.62,1.73l-1.64,4.31,0,0a.34.34,0,0,0-.48,0l-.31.3a14.43,14.43,0,0,0-.33-2.45C16.52,7,14.09,4,11.91,4.46c-1.58.34-2.52,2.43-2.55,5.21a1.31,1.31,0,0,0,0,.28A15.87,15.87,0,0,0,9.71,13h0a16.36,16.36,0,0,0,.64,2.17l-1.77-1.7,0,0-.07-.05H8.35l-.1,0h0l0,0-.09.06h0l0,0L8,13.61a.25.25,0,0,0,0,.08.09.09,0,0,0,0,.05V30.87A1.22,1.22,0,0,0,9.29,32h18.1a1.22,1.22,0,0,0,1.28-1.14V13.74a.06.06,0,0,0,0,0,.19.19,0,0,0,0-.08ZM27.57,6.17c.11,0,.38,0,.43.26s-.27,1.1-1.95,2.12l-.1,0-.8-.3c.7-1.56,1.8-2.08,2.41-2Zm-4-1.43c.18-.13.4,0,.49.09.48.37,1,1.5.45,3.12l-.8-.3-.1,0c-.58-1.89-.31-2.7-.05-2.88ZM20.87,9.45a2,2,0,0,1,2.58-1.16l1.13.43h0l1.13.43a2,2,0,0,1,1.16,2.58l-1.38,3.62L23.56,13.5a.34.34,0,0,0-.48,0l-2.26,2.16L19.13,14ZM12.06,5.13c1.72-.38,3.89,2.54,4.71,6.36a14,14,0,0,1,.33,2.95l-1.27,1.22L13.57,13.5a.33.33,0,0,0-.47,0l-1.95,1.86a15.21,15.21,0,0,1-.76-2.46c.11-.29,1.44-1,3.77-1.53a.34.34,0,0,0,.27-.41A.35.35,0,0,0,14,10.7h0a14.63,14.63,0,0,0-3,1,4.83,4.83,0,0,0-.76.44,14.67,14.67,0,0,1-.18-2.38,3.42,3.42,0,0,1,2.42-1.4.33.33,0,0,0,.25-.42.35.35,0,0,0-.39-.25,5.57,5.57,0,0,0-2.21.94c.21-1.87.9-3.24,1.93-3.46ZM27.38,31.32H9.28a.54.54,0,0,1-.59-.45V14.55l1.91,1.84a.34.34,0,0,0,.48,0l2.25-2.17,2.26,2.17a.34.34,0,0,0,.48,0l1.62-1.55v0l.63-.6.15.16h0l2.1,2a.34.34,0,0,0,.48,0l2.25-2.17,2.26,2.17a.34.34,0,0,0,.48,0L28,14.55V30.87c0,.25-.28.45-.6.45Z"/></g></g></svg>