<svg id="Layer_1" data-name="Layer 1" xmlns="http://www.w3.org/2000/svg" xmlns:xlink="http://www.w3.org/1999/xlink" viewBox="0 0 36 36"><defs><clipPath id="clip-path"><rect width="36" height="36" style="fill:none"/></clipPath></defs><g style="clip-path:url(#clip-path)"><g id="Mask_Group_4" data-name="Mask Group 4"><path id="ic_medicine_icon" data-name="ic medicine icon" d="M11.38,4A2.11,2.11,0,0,0,9.26,6.11h0V7a2.11,2.11,0,0,0,2.11,2.12h.85v1.26A1.58,1.58,0,0,1,10.66,12,2.67,2.67,0,0,0,8,14.65H8V29.78A2.22,2.22,0,0,0,10.21,32H25.88a2.22,2.22,0,0,0,2.22-2.22h0V14.66A2.67,2.67,0,0,0,25.44,12h0a1.58,1.58,0,0,1-1.56-1.57V9.13h.84A2.11,2.11,0,0,0,26.84,7h0v-.9A2.11,2.11,0,0,0,24.73,4H11.38Zm0,.79h2.06V8.34H11.37A1.34,1.34,0,0,1,10.05,7V6.57h0V6.12a1.33,1.33,0,0,1,1.32-1.33Zm2.85,0h3.43V8.34H14.23Zm4.21,0h3.43V8.34H18.45Zm4.22,0h2.06a1.32,1.32,0,0,1,1.33,1.32V7a1.33,1.33,0,0,1-1.33,1.33H22.66V4.79ZM13,9.12H23.1v1.27a2.35,2.35,0,0,0,2.33,2.37h0a1.89,1.89,0,0,1,1.87,1.9V29.78a1.43,1.43,0,0,1-1.43,1.43H10.21a1.42,1.42,0,0,1-1.42-1.43V14.66a1.89,1.89,0,0,1,1.87-1.9A2.35,2.35,0,0,0,13,10.4h0Zm5.05,7.47a.4.4,0,0,0-.4.38v4h-4a.4.4,0,0,0,0,.79h4v4a.4.4,0,0,0,.79,0v-4h4a.4.4,0,0,0,0-.79h-4V17a.4.4,0,0,0-.38-.4Z"/></g></g></svg>