<svg id="Layer_1" data-name="Layer 1" xmlns="http://www.w3.org/2000/svg" xmlns:xlink="http://www.w3.org/1999/xlink" viewBox="0 0 36 36"><defs><clipPath id="clip-path"><rect width="36" height="36" style="fill:none"/></clipPath></defs><g style="clip-path:url(#clip-path)"><g id="Mask_Group_13" data-name="Mask Group 13"><g id="Group_54" data-name="Group 54"><path id="Path_31" data-name="Path 31" d="M18.43,21.39a1.08,1.08,0,0,0-1.08,1.08v3.59a1.08,1.08,0,1,0,2.15.07V22.47A1.07,1.07,0,0,0,18.43,21.39Zm.36,4.67a.36.36,0,0,1-.72,0h0V22.47a.36.36,0,0,1,.35-.36.37.37,0,0,1,.37.35h0Z" style="fill:#030504"/><path id="Path_32" data-name="Path 32" d="M22.79,27.07a1.08,1.08,0,0,0,1.29-.81h0l.8-3.5h0a1.08,1.08,0,0,0-2.08-.57.3.3,0,0,0,0,.1l-.8,3.5h0a1.08,1.08,0,0,0,.81,1.29Zm-.12-1.13.8-3.5h0a.37.37,0,0,1,.44-.27.36.36,0,0,1,.26.43l-.8,3.5h0a.35.35,0,0,1-.42.27.36.36,0,0,1-.28-.42Z" style="fill:#030504"/><path id="Path_33" data-name="Path 33" d="M14.08,22.27a1.07,1.07,0,0,0-1.32-.75A1.09,1.09,0,0,0,12,22.75l.8,3.5h0a1.08,1.08,0,0,0,2.13-.37l0-.11Zm.05,3.94a.36.36,0,0,1-.65-.11l-.8-3.5a.36.36,0,0,1,.7-.16l.8,3.5a.37.37,0,0,1,0,.27Z" style="fill:#030504"/><path id="Path_34" data-name="Path 34" d="M30.45,15.3H29.32c.27-.51.52-1,.76-1.58A2.75,2.75,0,0,0,30.22,12a2.64,2.64,0,0,0-.9-1.45.64.64,0,0,1,.53-.42h.09a.85.85,0,0,0,.68-.35.89.89,0,0,0-.35-1.35l-.37-.11a.9.9,0,0,0,.37-.58.87.87,0,0,0-.15-.68.85.85,0,0,0-.58-.36h-.28a2.71,2.71,0,0,0-1.16.24,2.76,2.76,0,0,0-1.18-.87.79.79,0,0,0-.67,0,.86.86,0,0,0-.44.53.88.88,0,0,0,.08.69l-.38-.06h-.07a.83.83,0,0,0-.68.34.9.9,0,0,0,.33,1.34.64.64,0,0,1,.33.58,2.62,2.62,0,0,0-1.54.84A2.72,2.72,0,0,0,23.19,12a25.94,25.94,0,0,0,0,3.3H20.57V8.84a3,3,0,0,1,.64,2.76,2.19,2.19,0,0,1,1.19-.09,3.08,3.08,0,0,1,.28-.84,3,3,0,0,0-.51-.08,3.15,3.15,0,0,0-.05-.43,3.85,3.85,0,0,0-1.55-2.48V5.6A2.2,2.2,0,0,0,19.5,3.7a2.08,2.08,0,0,0-2.15,0,2.2,2.2,0,0,0-1.07,1.9V7.74a3.85,3.85,0,0,0-1.5,2.91,3.24,3.24,0,0,0-.53.16,5.47,5.47,0,0,1,.83.68,2.29,2.29,0,0,1,.64,0A2.94,2.94,0,0,1,16.28,9V15.3h-.43a4.72,4.72,0,0,0-1.3-3.09,4.51,4.51,0,0,0-3-1.39,3,3,0,0,0-1-1.18,2.74,2.74,0,0,0-1.44-.5H9.06a.85.85,0,0,0-.47.13.92.92,0,0,0-.33.38.88.88,0,0,0,0,.53.87.87,0,0,0,.25.47,2,2,0,0,1,.43.92A4.67,4.67,0,0,0,6.84,15.3H6.4a.87.87,0,0,0-.61.26.9.9,0,0,0-.25.62v.88a.91.91,0,0,0,.25.63A.87.87,0,0,0,6.4,18h.29L8.45,30.1a1.74,1.74,0,0,0,1.7,1.51H26.7a1.78,1.78,0,0,0,1.13-.43,1.89,1.89,0,0,0,.58-1.08L30.14,18h.31a.87.87,0,0,0,.61-.26.91.91,0,0,0,.25-.63v-.88a.9.9,0,0,0-.25-.62.87.87,0,0,0-.61-.26Zm-3.5-6a2.47,2.47,0,0,0-.31-2.42A1.87,1.87,0,0,1,27.78,8.3a1.74,1.74,0,0,1,1.48-.73h.17a2.41,2.41,0,0,0-1.35,2,1.7,1.7,0,0,1,1.17-.47,1.8,1.8,0,0,1,.69.13h-.09a1.37,1.37,0,0,0-.76.24,1.45,1.45,0,0,0-.52.63L28.3,10l-1.88-.46-.14,0h0a1.51,1.51,0,0,0-.21-.83,1.42,1.42,0,0,0-.62-.57,1.73,1.73,0,0,1,.91.37,1.88,1.88,0,0,1,.59.8Zm0,4.08-.5-.8h0a.38.38,0,0,0-.27-.19.37.37,0,0,0-.32.06l-.67.44L24,12.66c0-.2,0-.4,0-.6h0a1.81,1.81,0,0,1,.71-1.33,1.73,1.73,0,0,1,1.46-.3l1.88.46a1.78,1.78,0,0,1,1.16.95,1.9,1.9,0,0,1,0,1.53c-.29.67-.62,1.32-1,1.94H24.08c0-.56-.06-1.15-.06-1.75l1.19.24a.43.43,0,0,0,.31-.06l.38-.25.12,0,.22.35a.42.42,0,0,0,.58.14h0A.46.46,0,0,0,27,13.4ZM17.14,5.6a1.3,1.3,0,0,1,.64-1.14,1.25,1.25,0,0,1,1.29,0,1.3,1.3,0,0,1,.64,1.14V18a1.31,1.31,0,0,1-.64,1.14,1.25,1.25,0,0,1-1.29,0A1.31,1.31,0,0,1,17.14,18ZM9.78,12.06A3,3,0,0,0,9.06,10a2,2,0,0,1,1.88,1.71,3.51,3.51,0,0,1,1.89.31c-.28.26-.85.67-1.36.3h0a.41.41,0,0,0-.53,0,.46.46,0,0,0-.09.55,1.36,1.36,0,0,1,.05,1,1.28,1.28,0,0,1-.54-.83.44.44,0,0,0-.39-.4.42.42,0,0,0-.45.31c-.2.68-1,.66-1.37.62h0a3.71,3.71,0,0,1,1.63-1.58Zm-2,2.42a2.43,2.43,0,0,0,2-.41A2.48,2.48,0,0,0,10.9,15a.44.44,0,0,0,.32,0l0,0a.45.45,0,0,0,.24-.21,2.9,2.9,0,0,0,.32-1.39,2.39,2.39,0,0,0,1.75-.86A3.83,3.83,0,0,1,15,15.3H7.7a3.87,3.87,0,0,1,.12-.82ZM6.4,17.06v-.88h9.88v.88ZM27.55,30a.91.91,0,0,1-.28.54.87.87,0,0,1-.57.22H10.15a.82.82,0,0,1-.56-.22A.88.88,0,0,1,9.3,30l0-.12H27.57Zm.15-1H9.15L7.56,18h8.72a2.2,2.2,0,0,0,1.07,1.9,2.08,2.08,0,0,0,2.15,0A2.21,2.21,0,0,0,20.58,18h8.69Zm2.75-11.9H20.57v-.88h9.88Z" style="fill:#030504"/></g></g></g></svg>