<?xml version="1.0" encoding="utf-8"?>
<!-- Generator: Adobe Illustrator 25.2.1, SVG Export Plug-In . SVG Version: 6.00 Build 0)  -->
<svg version="1.1" id="Layer_1" xmlns="http://www.w3.org/2000/svg" xmlns:xlink="http://www.w3.org/1999/xlink" x="0px" y="0px"
	 viewBox="0 0 1000 1000" style="enable-background:new 0 0 1000 1000;" xml:space="preserve">
<g>
	<path d="M500,6.2C227.7,6.2,6.2,227.7,6.2,500c0,272.3,221.5,493.8,493.8,493.8c272.3,0,493.8-221.5,493.8-493.8
		C993.8,227.7,772.3,6.2,500,6.2z M680.7,333.1c-13.5,20.3-32.4,35-54.1,38.4v100.2c22.4,4.6,39.3,24.3,39.3,47.9v314.7
		c0,27.1-22.1,49.2-49.2,49.2c-27.1,0-49.2-22.1-49.2-49.2V519.7c0-23.7,17-43.3,39.3-47.9V371.5c-21.7-3.4-40.6-18.2-54.1-38.4
		c-15.5-23.3-24.6-54.5-24.6-88.8c0-34.4,9.1-65.9,24.6-89.1c15.5-23.3,38.2-38.7,63.9-38.7h0c25.7,0,48.4,15.4,63.9,38.7
		c15.5,23.3,24.6,54.8,24.6,89.1C705.3,278.6,696.2,309.8,680.7,333.1z M471.6,284.3c0,45.5-34.5,83.2-78.6,88.1v99.8
		c22.3,4.6,39.3,24.2,39.3,47.9v314.4c0,27-22.1,49.1-49.1,49.1c-27,0-49.1-22.1-49.1-49.1V520.1c0-23.7,16.9-43.3,39.3-47.9v-99.8
		c-44.1-4.9-78.6-42.7-78.6-88.1V127.1h0c0-2.6,1-5.2,2.8-7c1.8-1.9,4.4-2.9,7-2.9c2.6,0,5.2,1.1,7,2.9c1.9,1.9,2.9,4.4,2.8,7v157.2
		c0,34.9,25.5,63.4,59,68.2V127.1c-0.1-2.9,1.1-5.7,3.2-7.6c2.1-1.9,5-2.9,7.9-2.5c5.1,0.6,8.8,5,8.6,10.1v225.4
		c33.5-4.7,59-33.3,59-68.2V127.1c-0.1-2.9,1-5.7,3.2-7.6c2.1-1.9,5-2.9,7.9-2.5c5.1,0.6,8.8,5,8.6,10.1V284.3z"/>
	<path d="M587.2,519.7v314.8c0,16.5,13,29.5,29.5,29.5c16.5,0,29.5-13,29.5-29.5V519.7c0-16.5-13-29.5-29.5-29.5
		C600.2,490.1,587.2,503.1,587.2,519.7z"/>
</g>
</svg>
