<?xml version="1.0" encoding="utf-8"?>
<!-- Generator: Adobe Illustrator 25.2.1, SVG Export Plug-In . SVG Version: 6.00 Build 0)  -->
<svg version="1.1" id="Layer_1" xmlns="http://www.w3.org/2000/svg" xmlns:xlink="http://www.w3.org/1999/xlink" x="0px" y="0px"
	 viewBox="0 0 575.2 1010.4" style="enable-background:new 0 0 575.2 1010.4;" xml:space="preserve">
<path d="M527.3,1006.2c-38.8-21.6-77.5-43.1-116.3-64.7c-29.5-16.4-58.6-35.7-89-50.1c-38.4-18.2-74.9,4.7-108.1,23
	c-26.5,14.7-53,29.3-79.4,44c-28.8,16-57.7,31.9-86.5,47.9C26.4,1018.3,0,1002.7,0,978.1V32.3C0,14.5,14.5,0,32.3,0H543
	c17.8,0,32.3,14.5,32.3,32.3V978C575.2,1002.6,548.8,1018.2,527.3,1006.2z"/>
</svg>
