<?xml version="1.0" encoding="utf-8"?>
<!-- Generator: Adobe Illustrator 25.2.1, SVG Export Plug-In . SVG Version: 6.00 Build 0)  -->
<svg version="1.1" id="Layer_1" xmlns="http://www.w3.org/2000/svg" xmlns:xlink="http://www.w3.org/1999/xlink" x="0px" y="0px"
	 viewBox="0 0 575.2 1010.4" style="enable-background:new 0 0 575.2 1010.4;" xml:space="preserve">
<path d="M543,0H32.3C14.5,0,0,14.5,0,32.3v945.8c0,18.8,15.4,32.3,32.3,32.3c5.2,0,10.5-1.3,15.6-4.1c28.8-16,57.7-31.9,86.5-47.9
	c26.5-14.7,53-29.3,79.4-44c24.6-13.6,51-29.7,78.7-29.7c9.7,0,19.5,2,29.4,6.7c30.4,14.4,59.5,33.7,89,50.1
	c38.8,21.6,77.5,43.1,116.3,64.7c5.1,2.8,10.4,4.1,15.6,4.1c16.9,0,32.3-13.5,32.3-32.3V32.3C575.2,14.5,560.8,0,543,0z
	 M537.2,955.3c0,5.8-6.2,9.5-11.3,6.7l-96.5-53.6c-10-5.6-19.9-11.4-30.4-17.7c-19.5-11.5-39.6-23.5-60.8-33.5
	c-14.5-6.9-29.8-10.3-45.7-10.3c-35.4,0-66.4,17.3-91.3,31.2c-1.9,1.1-3.9,2.2-5.8,3.2L49.3,962.2c-5.1,2.8-11.3-0.9-11.3-6.7V50.2
	C38,43.5,43.5,38,50.2,38h474.9c6.7,0,12.2,5.5,12.2,12.2V955.3z"/>
</svg>
